<svg xmlns="http://www.w3.org/2000/svg" x="0px" y="0px"
width="64" height="64"
viewBox="0 0 172 172"
style=" fill:#000000;"><g fill="none" fill-rule="nonzero" stroke="none" stroke-width="1" stroke-linecap="butt" stroke-linejoin="miter" stroke-miterlimit="10" stroke-dasharray="" stroke-dashoffset="0" font-family="none" font-weight="none" font-size="none" text-anchor="none" style="mix-blend-mode: normal"><path d="M0,172v-172h172v172z" fill="none"></path><g><path d="M83.3125,8.0625c-41.55943,0 -75.25,33.69057 -75.25,75.25c0,41.55943 33.69057,75.25 75.25,75.25c41.55943,0 75.25,-33.69057 75.25,-75.25c0,-41.55943 -33.69057,-75.25 -75.25,-75.25z" fill="#85cbf8"></path><path d="M83.3125,8.0625c-41.55943,0 -75.25,33.69057 -75.25,75.25c0,41.55943 33.69057,75.25 75.25,75.25c41.55943,0 75.25,-33.69057 75.25,-75.25c0,-41.55943 -33.69057,-75.25 -75.25,-75.25zM83.3125,142.4375c-26.58344,0.00423 -49.90126,-17.7336 -56.99218,-43.35387c-7.09093,-25.62026 3.78871,-52.82293 26.59142,-66.48731c22.80271,-13.66439 51.92131,-10.43041 71.17014,7.90431l1.8275,1.80063c0.69875,0.71667 1.37063,1.45125 2.01563,2.20375c15.20791,17.48044 18.80386,42.23289 9.19863,63.31809c-9.60522,21.0852 -30.64119,34.61675 -53.81113,34.61441z" fill="#f9e3ae"></path><path d="M83.3125,142.4375c-32.65384,0 -59.125,-26.47116 -59.125,-59.125h-4.46125c-3.19133,-0.01079 -6.22247,1.39692 -8.27317,3.84219c-2.0507,2.44526 -2.90893,5.67527 -2.34245,8.81594c6.14263,36.1815 37.48922,62.65483 74.18844,62.65483c36.69922,0 68.04581,-26.47333 74.18844,-62.65483c0.56563,-3.13603 -0.28923,-6.36139 -2.33385,-8.8056c-2.04462,-2.44421 -5.06827,-3.85533 -8.2549,-3.85253h-4.46125c0,32.65384 -26.47116,59.125 -59.125,59.125z" fill="#f6d397"></path><path d="M83.3125,5.375c-43.04369,0 -77.9375,34.89381 -77.9375,77.9375c0,43.04369 34.89381,77.9375 77.9375,77.9375c43.04369,0 77.9375,-34.89381 77.9375,-77.9375c0,-43.04369 -34.89381,-77.9375 -77.9375,-77.9375zM83.3125,155.875c-40.07516,0 -72.5625,-32.48734 -72.5625,-72.5625c0,-40.07516 32.48734,-72.5625 72.5625,-72.5625c40.07516,0 72.5625,32.48734 72.5625,72.5625c0,40.07516 -32.48734,72.5625 -72.5625,72.5625z" fill="#8d6c9f"></path><path d="M83.3125,134.375c-1.48427,0 -2.6875,1.20323 -2.6875,2.6875v5.375c0,1.48427 1.20323,2.6875 2.6875,2.6875c1.48427,0 2.6875,-1.20323 2.6875,-2.6875v-5.375c0,-1.48427 -1.20323,-2.6875 -2.6875,-2.6875zM99.4375,134.59c-0.42453,-1.3848 -1.8701,-2.18407 -3.26863,-1.80726c-1.39854,0.37681 -2.24689,1.79413 -1.91824,3.20476l1.3975,5.18687c0.39333,1.43974 1.87933,2.28802 3.31906,1.89469c1.43974,-0.39333 2.28802,-1.87933 1.89469,-3.31906zM58.45313,127.71c-0.61953,-0.3589 -1.35667,-0.45576 -2.04788,-0.26908c-0.69122,0.18668 -1.27937,0.64146 -1.63399,1.26345l-2.6875,4.64937c-0.66758,1.27616 -0.21049,2.85172 1.03641,3.57248c1.2469,0.72075 2.84032,0.33045 3.61297,-0.88498l2.6875,-4.64937c0.36113,-0.61627 0.46208,-1.35094 0.28054,-2.04177c-0.18153,-0.69083 -0.63061,-1.28098 -1.24804,-1.6401zM111.85375,128.70438c-0.77265,-1.21543 -2.36607,-1.60573 -3.61297,-0.88498c-1.2469,0.72075 -1.70399,2.29632 -1.03641,3.57248l2.6875,4.64937c0.45758,0.87472 1.35789,1.42817 2.34498,1.44153c0.98709,0.01336 1.90205,-0.51552 2.38314,-1.37753c0.48109,-0.86202 0.45086,-1.9184 -0.07874,-2.7515zM70.43938,132.68188c-1.43191,-0.37551 -2.89787,0.47763 -3.27875,1.90813l-1.3975,5.16c-0.28786,0.939 -0.04058,1.96024 0.64494,2.66355c0.68552,0.70331 1.70009,0.97667 2.64616,0.71295c0.94606,-0.26371 1.67293,-1.02249 1.89578,-1.97901l1.3975,-5.18687c0.37551,-1.43191 -0.47763,-2.89787 -1.90812,-3.27875z" fill="#8d6c9f"></path><path d="M113.65438,59.90437l-38.40437,38.43125l-19.59187,-19.59188c-1.06629,-0.91315 -2.65577,-0.85176 -3.64845,0.14092c-0.99268,0.99268 -1.05407,2.58216 -0.14092,3.64845l21.5,21.5c1.04823,1.04201 2.74115,1.04201 3.78937,0l40.3125,-40.3125c0.91315,-1.06629 0.85176,-2.65577 -0.14092,-3.64845c-0.99268,-0.99268 -2.58216,-1.05407 -3.64845,-0.14092z" fill="#faefde"></path><path d="M103.06563,30.4225c1.92467,0.72128 3.8087,1.54666 5.64375,2.4725c0.37443,0.19184 0.78867,0.2931 1.20938,0.29562c1.23851,-0.00734 2.31162,-0.86012 2.59849,-2.06497c0.28687,-1.20485 -0.2868,-2.44972 -1.38911,-3.0144c-2.00934,-1.00901 -4.0729,-1.90621 -6.18125,-2.6875c-1.36051,-0.42223 -2.81412,0.29045 -3.31352,1.62456c-0.4994,1.33411 0.12893,2.82613 1.43227,3.40106zM43.40313,43.40313c12.83048,-12.78206 31.00096,-18.65575 48.88563,-15.8025c1.48427,0.23748 2.88002,-0.77323 3.1175,-2.2575c0.23748,-1.48427 -0.77323,-2.88002 -2.2575,-3.1175c-26.50189,-4.30919 -52.75478,8.98318 -64.968,32.89461c-12.21322,23.91143 -7.59326,52.9727 11.433,71.91789c1.06629,0.91315 2.65577,0.85176 3.64845,-0.14092c0.99268,-0.99268 1.05407,-2.58216 0.14092,-3.64845c-10.59355,-10.58534 -16.54564,-24.94707 -16.54564,-39.92281c0,-14.97574 5.95209,-29.33747 16.54564,-39.92281zM127.01125,39.61375c-1.76984,-1.77792 -3.64556,-3.44722 -5.61687,-4.99875c-0.745,-0.67906 -1.80736,-0.88412 -2.75157,-0.53111c-0.94421,0.35301 -1.61148,1.20472 -1.72825,2.20598c-0.11678,1.00126 0.33657,1.98367 1.1742,2.5445c1.80111,1.4186 3.51525,2.94427 5.13312,4.56875c10.58533,10.58425 16.5322,24.94022 16.5322,39.90937c0,14.96915 -5.94687,29.32513 -16.5322,39.90937c-0.76695,0.6568 -1.10102,1.68807 -0.86486,2.66981c0.23616,0.98175 1.00268,1.74827 1.98443,1.98443c0.98175,0.23616 2.01302,-0.09792 2.66981,-0.86486c24.1269,-24.13716 24.1269,-63.26034 0,-87.3975z" fill="#8d6c9f"></path></g></g></svg>